<svg width="881" height="577" viewBox="0 0 881 577" fill="none" xmlns="http://www.w3.org/2000/svg">
<g id="rest" clip-path="url(#clip0_1_2)">
<g id="Group 1">
<path id="Vector" d="M788.133 421.512C788.516 439.717 786.004 457.868 780.69 475.284C780.504 475.917 780.28 476.549 780.057 477.182H670.502C672.068 469.47 674.554 461.974 677.908 454.854C687.025 435.504 701.91 418.944 716.609 402.496C736.853 379.833 756.613 357.356 759.739 327.884C767.763 340.117 774.168 353.338 778.792 367.218C773.13 369.315 767.934 372.501 763.498 376.595C762.269 377.749 760.967 379.424 761.6 381.024C762.195 382.363 763.832 382.81 765.284 383.108C768.782 383.778 772.28 384.447 775.778 385.08C778.531 385.638 781.322 386.159 784.113 386.68C786.566 398.135 787.912 409.799 788.133 421.512Z" fill="#F2F2F2"/>
<path id="Vector_2" d="M435.555 67.9669C450.301 67.9669 462.256 56.0125 462.256 41.2661C462.256 26.5197 450.301 14.5654 435.555 14.5654C420.809 14.5654 408.854 26.5197 408.854 41.2661C408.854 56.0125 420.809 67.9669 435.555 67.9669Z" fill="#FD6584"/>
<path id="Vector_3" d="M495.313 58.6229C494.56 56.1538 493.101 53.9588 491.117 52.3082C489.132 50.6576 486.708 49.6234 484.143 49.3329C484.083 49.3279 484.023 49.3279 483.963 49.3329C483.891 49.3104 483.818 49.2937 483.743 49.2829C474.803 48.1229 464.863 50.9429 458.173 57.0829C455.69 59.3263 453.704 62.0651 452.343 65.1229C451.103 63.4289 449.468 62.0628 447.581 61.1428C445.694 60.2228 443.611 59.7766 441.513 59.8429C438.807 60.0218 436.222 61.031 434.11 62.7328C431.998 64.4347 430.463 66.7464 429.713 69.3529C429.631 69.6713 429.653 70.0078 429.778 70.3124C429.902 70.6169 430.121 70.8731 430.403 71.0429C431.207 71.7307 432.164 72.2175 433.193 72.4629C435.403 72.9329 437.633 73.3629 439.863 73.7529C444.223 74.5129 448.606 75.1295 453.013 75.6029C455.923 75.9129 458.84 76.1595 461.763 76.3429C467.803 76.7229 473.873 76.8129 479.923 76.6229C482.923 76.5229 485.803 76.4229 488.543 75.1029C490.54 74.1209 492.246 72.6354 493.493 70.7929C494.667 69.0205 495.439 67.0124 495.753 64.9098C496.068 62.8072 495.917 60.6612 495.313 58.6229Z" fill="#E6E6E6"/>
<path id="Vector_4" d="M440.383 97.5229C440.332 96.4041 440.144 95.2958 439.823 94.2229C439.066 91.754 437.606 89.5598 435.619 87.9095C433.633 86.2592 431.209 85.2247 428.643 84.9329C428.587 84.9279 428.53 84.9279 428.473 84.9329C428.398 84.9115 428.321 84.8948 428.243 84.8829C423.295 84.2768 418.274 84.7929 413.553 86.3929C406.293 88.8229 399.923 93.7228 396.853 100.723C395.612 99.0279 393.976 97.6611 392.087 96.7411C390.198 95.821 388.113 95.3754 386.013 95.4429C383.307 95.6218 380.722 96.631 378.61 98.3329C376.498 100.035 374.963 102.346 374.213 104.953C374.135 105.271 374.16 105.606 374.284 105.91C374.408 106.213 374.625 106.47 374.903 106.643C375.709 107.329 376.664 107.815 377.693 108.063C379.913 108.533 382.133 108.963 384.373 109.353C388.733 110.113 393.113 110.73 397.513 111.203C406.452 112.163 415.447 112.503 424.433 112.223C427.423 112.123 430.313 112.023 433.053 110.703C435.047 109.721 436.75 108.235 437.993 106.393C439.746 103.781 440.586 100.662 440.383 97.5229Z" fill="#E6E6E6"/>
<path id="Vector_5" d="M37.5657 454.458C37.6141 454.445 37.6603 454.426 37.7027 454.4C37.7589 454.366 37.8078 454.321 37.8466 454.268C37.8854 454.215 37.9134 454.155 37.9289 454.091C37.9445 454.027 37.9473 453.961 37.9372 453.896C37.9272 453.831 37.9044 453.769 37.8702 453.713L29.7148 440.304C29.6454 440.192 29.5343 440.111 29.4057 440.08C29.277 440.049 29.1414 440.07 29.0284 440.139C28.9155 440.208 28.8343 440.319 28.8028 440.447C28.7713 440.576 28.792 440.712 28.8603 440.825L37.0158 454.233C37.0715 454.324 37.1549 454.395 37.2538 454.436C37.3528 454.476 37.4621 454.484 37.5657 454.458Z" fill="#8B63FF"/>
<path id="Vector_6" d="M880.16 409.455C862.596 420.135 851.432 436.657 842.315 455.152C834.381 456.96 827.056 460.808 821.066 466.316C819.801 467.47 818.498 469.144 819.168 470.744C819.726 472.084 821.401 472.531 822.852 472.828C826.313 473.498 829.848 474.168 833.309 474.801C832.974 475.582 832.639 476.401 832.304 477.182H716.2C721.47 470.074 727.307 463.404 733.653 457.236C735.03 455.859 736.444 454.557 737.895 453.217C752.695 439.841 769.69 429.116 788.133 421.512C817.186 409.366 848.958 405.203 880.16 409.455Z" fill="#F2F2F2"/>
<path id="Vector_7" d="M735.551 477.182H632.173C631.608 468.904 631.658 460.595 632.322 452.324C636.452 401.23 664.25 352.556 706.189 323.083C700.831 342.173 703.584 361.152 709.166 380.205C708.385 380.466 707.604 380.689 706.896 380.987C701.235 383.084 696.039 386.27 691.602 390.364C690.374 391.518 689.072 393.193 689.704 394.793C690.262 396.132 691.937 396.579 693.388 396.877C696.886 397.546 700.384 398.216 703.845 398.849C706.636 399.407 709.427 399.928 712.218 400.486C713.52 400.71 714.823 400.97 716.125 401.23C716.311 401.677 716.423 402.087 716.609 402.496C723.159 420.544 730.303 438.741 733.653 457.236C734.482 461.877 735.053 466.561 735.364 471.265C735.476 473.238 735.551 475.21 735.551 477.182Z" fill="#F2F2F2"/>
<path id="Vector_8" d="M172.133 421.512C172.516 439.717 170.004 457.868 164.69 475.284C164.504 475.917 164.28 476.549 164.057 477.182H54.5021C56.0682 469.47 58.5545 461.974 61.9077 454.854C71.0247 435.504 85.9099 418.944 100.609 402.496C120.853 379.833 140.613 357.356 143.739 327.884C151.763 340.117 158.168 353.338 162.792 367.218C157.13 369.315 151.934 372.501 147.498 376.595C146.269 377.749 144.967 379.424 145.6 381.024C146.195 382.363 147.832 382.81 149.284 383.108C152.782 383.778 156.28 384.447 159.778 385.08C162.531 385.638 165.322 386.159 168.113 386.68C170.566 398.135 171.912 409.799 172.133 421.512Z" fill="#F2F2F2"/>
<path id="Vector_9" d="M264.16 409.455C246.595 420.135 235.432 436.657 226.315 455.152C218.381 456.96 211.056 460.808 205.066 466.316C203.801 467.47 202.498 469.144 203.168 470.744C203.726 472.084 205.401 472.531 206.852 472.828C210.313 473.498 213.848 474.168 217.309 474.801C216.974 475.582 216.639 476.401 216.304 477.182H100.2C105.47 470.074 111.307 463.404 117.653 457.236C119.029 455.859 120.444 454.557 121.895 453.217C136.695 439.841 153.69 429.116 172.132 421.512C201.186 409.366 232.958 405.203 264.16 409.455Z" fill="#F2F2F2"/>
<path id="Vector_10" d="M119.551 477.182H16.1728C15.6083 468.904 15.6581 460.595 16.3218 452.324C20.4524 401.23 48.2504 352.556 90.1895 323.083C84.8308 342.173 87.5845 361.152 93.1665 380.205C92.3852 380.466 91.6036 380.689 90.8966 380.987C85.235 383.084 80.0391 386.27 75.6021 390.364C74.374 391.518 73.0716 393.193 73.7042 394.793C74.2622 396.132 75.9369 396.579 77.3882 396.877C80.8862 397.546 84.3842 398.216 87.845 398.849C90.636 399.407 93.427 399.928 96.2179 400.486C97.5203 400.71 98.8229 400.97 100.125 401.23C100.311 401.677 100.423 402.087 100.609 402.496C107.159 420.544 114.303 438.741 117.653 457.236C118.482 461.877 119.053 466.561 119.365 471.265C119.476 473.238 119.551 475.21 119.551 477.182Z" fill="#F2F2F2"/>
<path id="Vector_11" d="M504.41 433.78L596.78 441.98L597.77 442.07V47.93C597.44 47.7 597.11 47.4701 596.78 47.2401C577.529 33.7747 556.705 22.7127 534.77 14.3L530.05 79.4L529.62 85.36L524.95 149.92L523.51 169.78L504.58 431.48L504.41 433.78Z" fill="#E6E6E6"/>
<path id="Vector_12" d="M239.98 27.46C239.32 27.88 238.66 28.3 238 28.74V428.94L239.98 428.76L331.35 420.65L331.18 418.35L312.25 156.65L310.81 136.79L306.14 72.23L305.71 66.27L300.76 -2C279.413 5.39936 259.013 15.2875 239.98 27.46Z" fill="#E6E6E6"/>
<path id="Vector_13" d="M278.97 32.28C277.64 33.14 276.31 34.02 275 34.91V437.94C275 448.01 280.97 456.45 288.95 458.6C290.254 458.953 291.599 459.131 292.95 459.13H589.75C591.098 459.132 592.44 458.954 593.74 458.6C596.706 457.777 599.395 456.167 601.52 453.94C605.573 449.608 607.789 443.872 607.7 437.94V41.92C606.06 40.71 604.41 39.51 602.74 38.34C602.41 38.11 602.08 37.88 601.75 37.65V437.94C601.752 439.237 601.598 440.53 601.29 441.79C599.88 447.74 595.23 452.1 589.75 452.1H292.95C286.33 452.1 280.95 445.75 280.95 437.94V31C280.29 31.42 279.63 31.84 278.97 32.28Z" fill="#E6E6E6"/>
<path id="Vector_14" d="M499.68 3.39001C497.7 2.90001 495.72 2.44001 493.72 2.01001V163.82H499.68V3.39001Z" fill="#E6E6E6"/>
<path id="Vector_15" d="M379.04 0C377.05 0.37 375.06 0.750004 373.08 1.16V163.82H379.04V0Z" fill="#E6E6E6"/>
<path id="Vector_16" d="M208.94 458.29C208.939 461.71 209.594 465.097 210.87 468.27C211.36 469.5 211.945 470.69 212.62 471.83C213.491 473.316 214.503 474.716 215.64 476.01C218.152 478.873 221.247 481.166 224.716 482.737C228.186 484.309 231.951 485.121 235.76 485.12H627.07C634.183 485.12 641.005 482.294 646.035 477.265C651.064 472.235 653.89 465.413 653.89 458.3C653.89 451.187 651.064 444.365 646.035 439.335C641.005 434.306 634.183 431.48 627.07 431.48H235.76C228.651 431.487 221.835 434.313 216.807 439.34C211.779 444.366 208.95 451.181 208.94 458.29Z" fill="#E6E6E6"/>
<path id="Vector_17" d="M273.003 169.782L597.768 169.782V149.919L273.003 149.919V169.782Z" fill="#E6E6E6"/>
<path id="Vector_18" d="M449.29 154.885H421.481C421.481 151.987 422.632 149.209 424.681 147.16C426.73 145.111 429.509 143.96 432.406 143.96H438.365C439.8 143.96 441.22 144.242 442.546 144.792C443.871 145.341 445.076 146.145 446.09 147.16C447.104 148.174 447.909 149.379 448.458 150.704C449.007 152.029 449.29 153.45 449.29 154.885H449.29Z" fill="#E6E6E6"/>
<path id="Vector_19" d="M0 473.61C8.68726 483.903 18.0835 493.577 28.12 502.56H834.7C844.737 493.577 854.133 483.903 862.82 473.61H0Z" fill="#3F3D56"/>
<path id="Vector_20" d="M396.69 376.8V479.36H468.54V376.8C468.541 376.062 468.306 375.344 467.868 374.75C467.431 374.156 466.815 373.718 466.11 373.5C465.778 373.39 465.43 373.336 465.08 373.34H400.16C399.705 373.339 399.254 373.428 398.833 373.601C398.413 373.775 398.03 374.029 397.708 374.351C397.386 374.672 397.13 375.054 396.955 375.474C396.781 375.894 396.69 376.345 396.69 376.8ZM424.73 412.04C424.749 410.018 425.565 408.086 427.002 406.663C428.438 405.24 430.378 404.442 432.4 404.442C434.422 404.442 436.362 405.24 437.798 406.663C439.234 408.086 440.051 410.018 440.07 412.04V423.94C440.06 425.967 439.247 427.908 437.81 429.338C436.372 430.768 434.427 431.571 432.4 431.571C430.373 431.571 428.428 430.768 426.99 429.338C425.553 427.908 424.74 425.967 424.73 423.94V412.04Z" fill="#2F2E41"/>
<path id="Vector_21" d="M396.47 476.08V485.97C396.472 486.482 396.675 486.973 397.037 487.336C397.398 487.7 397.888 487.906 398.4 487.91H466.83C467.343 487.907 467.834 487.702 468.195 487.338C468.557 486.975 468.76 486.483 468.76 485.97V476.08H396.47Z" fill="#3F3D56"/>
<path id="Vector_22" d="M283.66 222.28V409.54C283.662 411.926 284.611 414.214 286.298 415.902C287.986 417.589 290.274 418.538 292.66 418.54H570.16C572.546 418.538 574.834 417.589 576.522 415.902C578.209 414.214 579.158 411.926 579.16 409.54V222.28C579.154 219.896 578.204 217.611 576.517 215.926C574.83 214.241 572.544 213.293 570.16 213.29H292.66C290.276 213.293 287.99 214.241 286.303 215.926C284.616 217.611 283.666 219.896 283.66 222.28Z" fill="#3F3D56"/>
<path id="Vector_23" d="M290.17 224.61V407.23C290.172 408.505 290.68 409.727 291.581 410.629C292.483 411.53 293.705 412.038 294.98 412.04H567.85C569.125 412.038 570.347 411.53 571.249 410.629C572.15 409.727 572.658 408.505 572.66 407.23V224.61C572.66 223.333 572.153 222.109 571.252 221.205C570.35 220.302 569.127 219.793 567.85 219.79H294.98C293.703 219.793 292.48 220.302 291.578 221.205C290.677 222.109 290.17 223.333 290.17 224.61Z" fill="#FF63AE"/>
<path id="Vector_24" d="M345.81 490.24C346.088 490.588 346.441 490.869 346.843 491.061C347.244 491.254 347.685 491.352 348.13 491.35H510.47C510.914 491.349 511.352 491.25 511.753 491.059C512.154 490.867 512.507 490.589 512.786 490.245C513.066 489.9 513.265 489.497 513.37 489.065C513.474 488.634 513.481 488.185 513.39 487.75L510.87 475.78C510.766 475.292 510.541 474.838 510.216 474.459C509.891 474.08 509.477 473.788 509.01 473.61C508.672 473.477 508.313 473.41 507.95 473.41H350.64C350.277 473.41 349.918 473.477 349.58 473.61C349.114 473.788 348.699 474.08 348.374 474.459C348.049 474.838 347.825 475.292 347.72 475.78L345.2 487.75C345.11 488.184 345.119 488.633 345.224 489.064C345.33 489.494 345.53 489.896 345.81 490.24Z" fill="#2F2E41"/>
<path id="Vector_25" d="M502.285 478.566H506.309C506.578 478.566 506.797 478.347 506.797 478.078V476.054C506.797 475.784 506.578 475.566 506.309 475.566H502.285C502.016 475.566 501.797 475.784 501.797 476.054V478.078C501.797 478.347 502.016 478.566 502.285 478.566Z" fill="#3F3D56"/>
<path id="Vector_26" d="M492.285 478.566H496.309C496.578 478.566 496.797 478.347 496.797 478.078V476.054C496.797 475.784 496.578 475.566 496.309 475.566H492.285C492.016 475.566 491.797 475.784 491.797 476.054V478.078C491.797 478.347 492.016 478.566 492.285 478.566Z" fill="#3F3D56"/>
<path id="Vector_27" d="M482.285 478.566H486.309C486.578 478.566 486.797 478.347 486.797 478.078V476.054C486.797 475.784 486.578 475.566 486.309 475.566H482.285C482.016 475.566 481.797 475.784 481.797 476.054V478.078C481.797 478.347 482.016 478.566 482.285 478.566Z" fill="#3F3D56"/>
<path id="Vector_28" d="M472.285 478.566H476.309C476.578 478.566 476.797 478.347 476.797 478.078V476.054C476.797 475.784 476.578 475.566 476.309 475.566H472.285C472.016 475.566 471.797 475.784 471.797 476.054V478.078C471.797 478.347 472.016 478.566 472.285 478.566Z" fill="#3F3D56"/>
<path id="Vector_29" d="M462.285 478.566H466.309C466.578 478.566 466.797 478.347 466.797 478.078V476.054C466.797 475.784 466.578 475.566 466.309 475.566H462.285C462.016 475.566 461.797 475.784 461.797 476.054V478.078C461.797 478.347 462.016 478.566 462.285 478.566Z" fill="#3F3D56"/>
<path id="Vector_30" d="M452.285 478.566H456.309C456.578 478.566 456.797 478.347 456.797 478.078V476.054C456.797 475.784 456.578 475.566 456.309 475.566H452.285C452.016 475.566 451.797 475.784 451.797 476.054V478.078C451.797 478.347 452.016 478.566 452.285 478.566Z" fill="#3F3D56"/>
<path id="Vector_31" d="M442.285 478.566H446.309C446.578 478.566 446.797 478.347 446.797 478.078V476.054C446.797 475.784 446.578 475.566 446.309 475.566H442.285C442.016 475.566 441.797 475.784 441.797 476.054V478.078C441.797 478.347 442.016 478.566 442.285 478.566Z" fill="#3F3D56"/>
<path id="Vector_32" d="M432.285 478.566H436.309C436.578 478.566 436.797 478.347 436.797 478.078V476.054C436.797 475.784 436.578 475.566 436.309 475.566H432.285C432.016 475.566 431.797 475.784 431.797 476.054V478.078C431.797 478.347 432.016 478.566 432.285 478.566Z" fill="#3F3D56"/>
<path id="Vector_33" d="M422.285 478.566H426.309C426.578 478.566 426.797 478.347 426.797 478.078V476.054C426.797 475.784 426.578 475.566 426.309 475.566H422.285C422.016 475.566 421.797 475.784 421.797 476.054V478.078C421.797 478.347 422.016 478.566 422.285 478.566Z" fill="#3F3D56"/>
<path id="Vector_34" d="M412.285 478.566H416.309C416.578 478.566 416.797 478.347 416.797 478.078V476.054C416.797 475.784 416.578 475.566 416.309 475.566H412.285C412.016 475.566 411.797 475.784 411.797 476.054V478.078C411.797 478.347 412.016 478.566 412.285 478.566Z" fill="#3F3D56"/>
<path id="Vector_35" d="M402.285 478.566H406.309C406.578 478.566 406.797 478.347 406.797 478.078V476.054C406.797 475.784 406.578 475.566 406.309 475.566H402.285C402.016 475.566 401.797 475.784 401.797 476.054V478.078C401.797 478.347 402.016 478.566 402.285 478.566Z" fill="#3F3D56"/>
<path id="Vector_36" d="M392.285 478.566H396.309C396.578 478.566 396.797 478.347 396.797 478.078V476.054C396.797 475.784 396.578 475.566 396.309 475.566H392.285C392.016 475.566 391.797 475.784 391.797 476.054V478.078C391.797 478.347 392.016 478.566 392.285 478.566Z" fill="#3F3D56"/>
<path id="Vector_37" d="M382.285 478.566H386.309C386.578 478.566 386.797 478.347 386.797 478.078V476.054C386.797 475.784 386.578 475.566 386.309 475.566H382.285C382.016 475.566 381.797 475.784 381.797 476.054V478.078C381.797 478.347 382.016 478.566 382.285 478.566Z" fill="#3F3D56"/>
<path id="Vector_38" d="M372.285 478.566H376.309C376.578 478.566 376.797 478.347 376.797 478.078V476.054C376.797 475.784 376.578 475.566 376.309 475.566H372.285C372.016 475.566 371.797 475.784 371.797 476.054V478.078C371.797 478.347 372.016 478.566 372.285 478.566Z" fill="#3F3D56"/>
<path id="Vector_39" d="M362.285 478.566H366.309C366.578 478.566 366.797 478.347 366.797 478.078V476.054C366.797 475.784 366.578 475.566 366.309 475.566H362.285C362.016 475.566 361.797 475.784 361.797 476.054V478.078C361.797 478.347 362.016 478.566 362.285 478.566Z" fill="#3F3D56"/>
<path id="Vector_40" d="M352.285 478.566H356.309C356.578 478.566 356.797 478.347 356.797 478.078V476.054C356.797 475.784 356.578 475.566 356.309 475.566H352.285C352.016 475.566 351.797 475.784 351.797 476.054V478.078C351.797 478.347 352.016 478.566 352.285 478.566Z" fill="#3F3D56"/>
<path id="Vector_41" d="M502.403 483.566H506.427C506.697 483.566 506.915 483.347 506.915 483.078V481.054C506.915 480.784 506.697 480.566 506.427 480.566H502.403C502.134 480.566 501.915 480.784 501.915 481.054V483.078C501.915 483.347 502.134 483.566 502.403 483.566Z" fill="#3F3D56"/>
<path id="Vector_42" d="M492.403 483.566H496.427C496.697 483.566 496.915 483.347 496.915 483.078V481.054C496.915 480.784 496.697 480.566 496.427 480.566H492.403C492.134 480.566 491.915 480.784 491.915 481.054V483.078C491.915 483.347 492.134 483.566 492.403 483.566Z" fill="#3F3D56"/>
<path id="Vector_43" d="M482.403 483.566H486.427C486.697 483.566 486.915 483.347 486.915 483.078V481.054C486.915 480.784 486.697 480.566 486.427 480.566H482.403C482.134 480.566 481.915 480.784 481.915 481.054V483.078C481.915 483.347 482.134 483.566 482.403 483.566Z" fill="#3F3D56"/>
<path id="Vector_44" d="M472.403 483.566H476.427C476.697 483.566 476.915 483.347 476.915 483.078V481.054C476.915 480.784 476.697 480.566 476.427 480.566H472.403C472.134 480.566 471.915 480.784 471.915 481.054V483.078C471.915 483.347 472.134 483.566 472.403 483.566Z" fill="#3F3D56"/>
<path id="Vector_45" d="M462.403 483.566H466.427C466.697 483.566 466.915 483.347 466.915 483.078V481.054C466.915 480.784 466.697 480.566 466.427 480.566H462.403C462.134 480.566 461.915 480.784 461.915 481.054V483.078C461.915 483.347 462.134 483.566 462.403 483.566Z" fill="#3F3D56"/>
<path id="Vector_46" d="M452.403 483.566H456.427C456.697 483.566 456.915 483.347 456.915 483.078V481.054C456.915 480.784 456.697 480.566 456.427 480.566H452.403C452.134 480.566 451.915 480.784 451.915 481.054V483.078C451.915 483.347 452.134 483.566 452.403 483.566Z" fill="#3F3D56"/>
<path id="Vector_47" d="M442.403 483.566H446.427C446.697 483.566 446.915 483.347 446.915 483.078V481.054C446.915 480.784 446.697 480.566 446.427 480.566H442.403C442.134 480.566 441.915 480.784 441.915 481.054V483.078C441.915 483.347 442.134 483.566 442.403 483.566Z" fill="#3F3D56"/>
<path id="Vector_48" d="M432.403 483.566H436.427C436.697 483.566 436.915 483.347 436.915 483.078V481.054C436.915 480.784 436.697 480.566 436.427 480.566H432.403C432.134 480.566 431.915 480.784 431.915 481.054V483.078C431.915 483.347 432.134 483.566 432.403 483.566Z" fill="#3F3D56"/>
<path id="Vector_49" d="M422.403 483.566H426.427C426.697 483.566 426.915 483.347 426.915 483.078V481.054C426.915 480.784 426.697 480.566 426.427 480.566H422.403C422.134 480.566 421.915 480.784 421.915 481.054V483.078C421.915 483.347 422.134 483.566 422.403 483.566Z" fill="#3F3D56"/>
<path id="Vector_50" d="M412.403 483.566H416.427C416.697 483.566 416.915 483.347 416.915 483.078V481.054C416.915 480.784 416.697 480.566 416.427 480.566H412.403C412.134 480.566 411.915 480.784 411.915 481.054V483.078C411.915 483.347 412.134 483.566 412.403 483.566Z" fill="#3F3D56"/>
<path id="Vector_51" d="M402.403 483.566H406.427C406.697 483.566 406.915 483.347 406.915 483.078V481.054C406.915 480.784 406.697 480.566 406.427 480.566H402.403C402.134 480.566 401.915 480.784 401.915 481.054V483.078C401.915 483.347 402.134 483.566 402.403 483.566Z" fill="#3F3D56"/>
<path id="Vector_52" d="M392.403 483.566H396.427C396.697 483.566 396.915 483.347 396.915 483.078V481.054C396.915 480.784 396.697 480.566 396.427 480.566H392.403C392.134 480.566 391.915 480.784 391.915 481.054V483.078C391.915 483.347 392.134 483.566 392.403 483.566Z" fill="#3F3D56"/>
<path id="Vector_53" d="M382.403 483.566H386.427C386.697 483.566 386.915 483.347 386.915 483.078V481.054C386.915 480.784 386.697 480.566 386.427 480.566H382.403C382.134 480.566 381.915 480.784 381.915 481.054V483.078C381.915 483.347 382.134 483.566 382.403 483.566Z" fill="#3F3D56"/>
<path id="Vector_54" d="M372.403 483.566H376.427C376.697 483.566 376.915 483.347 376.915 483.078V481.054C376.915 480.784 376.697 480.566 376.427 480.566H372.403C372.134 480.566 371.915 480.784 371.915 481.054V483.078C371.915 483.347 372.134 483.566 372.403 483.566Z" fill="#3F3D56"/>
<path id="Vector_55" d="M362.403 483.566H366.427C366.697 483.566 366.915 483.347 366.915 483.078V481.054C366.915 480.784 366.697 480.566 366.427 480.566H362.403C362.134 480.566 361.915 480.784 361.915 481.054V483.078C361.915 483.347 362.134 483.566 362.403 483.566Z" fill="#3F3D56"/>
<path id="Vector_56" d="M352.403 483.566H356.427C356.697 483.566 356.915 483.347 356.915 483.078V481.054C356.915 480.784 356.697 480.566 356.427 480.566H352.403C352.134 480.566 351.915 480.784 351.915 481.054V483.078C351.915 483.347 352.134 483.566 352.403 483.566Z" fill="#3F3D56"/>
<path id="Vector_57" d="M419.403 489.566H458.427C458.697 489.566 458.915 489.347 458.915 489.078V487.054C458.915 486.784 458.697 486.566 458.427 486.566H419.403C419.134 486.566 418.915 486.784 418.915 487.054V489.078C418.915 489.347 419.134 489.566 419.403 489.566Z" fill="#3F3D56"/>
<path id="Vector_58" d="M308.692 244.947H564.015C564.281 244.941 564.533 244.831 564.719 244.642C564.905 244.452 565.009 244.197 565.009 243.931C565.009 243.666 564.905 243.411 564.719 243.221C564.533 243.031 564.281 242.922 564.015 242.916H308.692C308.426 242.922 308.174 243.031 307.988 243.221C307.803 243.411 307.699 243.666 307.699 243.931C307.699 244.197 307.803 244.452 307.988 244.642C308.174 244.831 308.426 244.941 308.692 244.947Z" fill="#3F3D56"/>
<path id="Vector_59" d="M546.635 237.732C549.921 237.732 552.585 235.008 552.585 231.649C552.585 228.289 549.921 225.566 546.635 225.566C543.349 225.566 540.685 228.289 540.685 231.649C540.685 235.008 543.349 237.732 546.635 237.732Z" fill="#3F3D56"/>
<path id="Vector_60" d="M526.079 237.732C529.365 237.732 532.029 235.008 532.029 231.649C532.029 228.289 529.365 225.566 526.079 225.566C522.793 225.566 520.129 228.289 520.129 231.649C520.129 235.008 522.793 237.732 526.079 237.732Z" fill="#3F3D56"/>
<path id="Vector_61" d="M505.523 237.732C508.809 237.732 511.473 235.008 511.473 231.649C511.473 228.289 508.809 225.566 505.523 225.566C502.237 225.566 499.573 228.289 499.573 231.649C499.573 235.008 502.237 237.732 505.523 237.732Z" fill="#3F3D56"/>
<path id="Vector_62" d="M319.98 228.18C319.979 228.324 320.007 228.466 320.061 228.599C320.116 228.733 320.196 228.854 320.297 228.956C320.398 229.058 320.519 229.139 320.651 229.195C320.784 229.25 320.926 229.279 321.07 229.28H335.67C335.959 229.273 336.233 229.154 336.435 228.947C336.637 228.741 336.75 228.464 336.75 228.175C336.75 227.886 336.637 227.609 336.435 227.403C336.233 227.196 335.959 227.077 335.67 227.07H321.07C320.779 227.074 320.5 227.192 320.296 227.4C320.092 227.608 319.978 227.889 319.98 228.18Z" fill="#3F3D56"/>
<path id="Vector_63" d="M319.98 232.33C319.979 232.474 320.007 232.616 320.061 232.749C320.116 232.883 320.196 233.004 320.297 233.106C320.398 233.208 320.519 233.289 320.651 233.345C320.784 233.4 320.926 233.429 321.07 233.43H335.67C335.959 233.424 336.234 233.304 336.436 233.098C336.638 232.891 336.751 232.614 336.751 232.325C336.751 232.036 336.638 231.759 336.436 231.552C336.234 231.346 335.959 231.226 335.67 231.22H321.07C320.779 231.224 320.5 231.342 320.296 231.55C320.092 231.758 319.978 232.039 319.98 232.33Z" fill="#3F3D56"/>
<path id="Vector_64" d="M319.98 236.47C319.978 236.762 320.092 237.042 320.296 237.25C320.5 237.458 320.779 237.576 321.07 237.58H335.67C335.959 237.573 336.233 237.454 336.435 237.247C336.637 237.041 336.75 236.764 336.75 236.475C336.75 236.186 336.637 235.909 336.435 235.703C336.233 235.496 335.959 235.377 335.67 235.37H321.07C320.926 235.371 320.784 235.4 320.651 235.455C320.519 235.511 320.398 235.592 320.297 235.694C320.196 235.796 320.116 235.917 320.061 236.051C320.007 236.184 319.979 236.326 319.98 236.47Z" fill="#3F3D56"/>
<path id="Vector_65" d="M324.492 268.543H319.246C317.655 268.543 316.366 269.833 316.366 271.423C316.366 273.014 317.655 274.303 319.246 274.303H324.492C326.083 274.303 327.372 273.014 327.372 271.423C327.372 269.833 326.083 268.543 324.492 268.543Z" fill="#E6E6E6"/>
<path id="Vector_66" d="M384.492 268.543H379.246C377.655 268.543 376.366 269.833 376.366 271.423C376.366 273.014 377.655 274.303 379.246 274.303H384.492C386.083 274.303 387.372 273.014 387.372 271.423C387.372 269.833 386.083 268.543 384.492 268.543Z" fill="#E6E6E6"/>
<path id="Vector_67" d="M401.492 268.543H396.246C394.655 268.543 393.366 269.833 393.366 271.423C393.366 273.014 394.655 274.303 396.246 274.303H401.492C403.083 274.303 404.372 273.014 404.372 271.423C404.372 269.833 403.083 268.543 401.492 268.543Z" fill="#E6E6E6"/>
<path id="Vector_68" d="M368.172 268.063H335.566C333.976 268.063 332.686 269.353 332.686 270.943C332.686 272.534 333.976 273.823 335.566 273.823H368.172C369.762 273.823 371.052 272.534 371.052 270.943C371.052 269.353 369.762 268.063 368.172 268.063Z" fill="#E6E6E6"/>
<path id="Vector_69" d="M448.172 268.063H415.566C413.976 268.063 412.686 269.353 412.686 270.943C412.686 272.534 413.976 273.823 415.566 273.823H448.172C449.762 273.823 451.052 272.534 451.052 270.943C451.052 269.353 449.762 268.063 448.172 268.063Z" fill="#E6E6E6"/>
<path id="Vector_70" d="M340.492 281.543H335.246C333.655 281.543 332.366 282.833 332.366 284.423C332.366 286.014 333.655 287.303 335.246 287.303H340.492C342.083 287.303 343.372 286.014 343.372 284.423C343.372 282.833 342.083 281.543 340.492 281.543Z" fill="#E6E6E6"/>
<path id="Vector_71" d="M400.492 281.543H395.246C393.655 281.543 392.366 282.833 392.366 284.423C392.366 286.014 393.655 287.303 395.246 287.303H400.492C402.083 287.303 403.372 286.014 403.372 284.423C403.372 282.833 402.083 281.543 400.492 281.543Z" fill="#E6E6E6"/>
<path id="Vector_72" d="M417.492 281.543H412.246C410.655 281.543 409.366 282.833 409.366 284.423C409.366 286.014 410.655 287.303 412.246 287.303H417.492C419.083 287.303 420.372 286.014 420.372 284.423C420.372 282.833 419.083 281.543 417.492 281.543Z" fill="#E6E6E6"/>
<path id="Vector_73" d="M384.172 281.063H351.566C349.976 281.063 348.686 282.353 348.686 283.943C348.686 285.534 349.976 286.823 351.566 286.823H384.172C385.762 286.823 387.052 285.534 387.052 283.943C387.052 282.353 385.762 281.063 384.172 281.063Z" fill="#E6E6E6"/>
<path id="Vector_74" d="M464.172 281.063H431.566C429.976 281.063 428.686 282.353 428.686 283.943C428.686 285.534 429.976 286.823 431.566 286.823H464.172C465.762 286.823 467.052 285.534 467.052 283.943C467.052 282.353 465.762 281.063 464.172 281.063Z" fill="#E6E6E6"/>
<path id="Vector_75" d="M356.492 294.543H351.246C349.655 294.543 348.366 295.833 348.366 297.423C348.366 299.014 349.655 300.303 351.246 300.303H356.492C358.083 300.303 359.372 299.014 359.372 297.423C359.372 295.833 358.083 294.543 356.492 294.543Z" fill="#E6E6E6"/>
<path id="Vector_76" d="M416.492 294.543H411.246C409.655 294.543 408.366 295.833 408.366 297.423C408.366 299.014 409.655 300.303 411.246 300.303H416.492C418.083 300.303 419.372 299.014 419.372 297.423C419.372 295.833 418.083 294.543 416.492 294.543Z" fill="#E6E6E6"/>
<path id="Vector_77" d="M433.492 294.543H428.246C426.655 294.543 425.366 295.833 425.366 297.423C425.366 299.014 426.655 300.303 428.246 300.303H433.492C435.083 300.303 436.372 299.014 436.372 297.423C436.372 295.833 435.083 294.543 433.492 294.543Z" fill="#E6E6E6"/>
<path id="Vector_78" d="M400.172 294.063H367.566C365.976 294.063 364.686 295.353 364.686 296.943C364.686 298.534 365.976 299.823 367.566 299.823H400.172C401.762 299.823 403.052 298.534 403.052 296.943C403.052 295.353 401.762 294.063 400.172 294.063Z" fill="#E6E6E6"/>
<path id="Vector_79" d="M480.172 294.063H447.566C445.976 294.063 444.686 295.353 444.686 296.943C444.686 298.534 445.976 299.823 447.566 299.823H480.172C481.762 299.823 483.052 298.534 483.052 296.943C483.052 295.353 481.762 294.063 480.172 294.063Z" fill="#E6E6E6"/>
<path id="Vector_80" d="M372.492 307.543H367.246C365.655 307.543 364.366 308.833 364.366 310.423C364.366 312.014 365.655 313.303 367.246 313.303H372.492C374.083 313.303 375.372 312.014 375.372 310.423C375.372 308.833 374.083 307.543 372.492 307.543Z" fill="#E6E6E6"/>
<path id="Vector_81" d="M432.492 307.543H427.246C425.655 307.543 424.366 308.833 424.366 310.423C424.366 312.014 425.655 313.303 427.246 313.303H432.492C434.083 313.303 435.372 312.014 435.372 310.423C435.372 308.833 434.083 307.543 432.492 307.543Z" fill="#E6E6E6"/>
<path id="Vector_82" d="M449.492 307.543H444.246C442.655 307.543 441.366 308.833 441.366 310.423C441.366 312.014 442.655 313.303 444.246 313.303H449.492C451.083 313.303 452.372 312.014 452.372 310.423C452.372 308.833 451.083 307.543 449.492 307.543Z" fill="#E6E6E6"/>
<path id="Vector_83" d="M416.172 307.063H383.566C381.976 307.063 380.686 308.353 380.686 309.943C380.686 311.534 381.976 312.823 383.566 312.823H416.172C417.762 312.823 419.052 311.534 419.052 309.943C419.052 308.353 417.762 307.063 416.172 307.063Z" fill="#E6E6E6"/>
<path id="Vector_84" d="M384.492 359.237H379.246C377.655 359.237 376.366 360.526 376.366 362.117C376.366 363.707 377.655 364.997 379.246 364.997H384.492C386.083 364.997 387.372 363.707 387.372 362.117C387.372 360.526 386.083 359.237 384.492 359.237Z" fill="#E6E6E6"/>
<path id="Vector_85" d="M401.492 359.237H396.246C394.655 359.237 393.366 360.526 393.366 362.117C393.366 363.707 394.655 364.997 396.246 364.997H401.492C403.083 364.997 404.372 363.707 404.372 362.117C404.372 360.526 403.083 359.237 401.492 359.237Z" fill="#E6E6E6"/>
<path id="Vector_86" d="M448.172 359.717H415.566C413.976 359.717 412.686 361.006 412.686 362.597C412.686 364.188 413.976 365.477 415.566 365.477H448.172C449.762 365.477 451.052 364.188 451.052 362.597C451.052 361.006 449.762 359.717 448.172 359.717Z" fill="#E6E6E6"/>
<path id="Vector_87" d="M324.492 359.237H319.246C317.655 359.237 316.366 360.526 316.366 362.117C316.366 363.707 317.655 364.997 319.246 364.997H324.492C326.083 364.997 327.372 363.707 327.372 362.117C327.372 360.526 326.083 359.237 324.492 359.237Z" fill="#E6E6E6"/>
<path id="Vector_88" d="M368.172 359.717H335.566C333.976 359.717 332.686 361.006 332.686 362.597C332.686 364.188 333.976 365.477 335.566 365.477H368.172C369.762 365.477 371.052 364.188 371.052 362.597C371.052 361.006 369.762 359.717 368.172 359.717Z" fill="#E6E6E6"/>
<path id="Vector_89" d="M340.492 346.237H335.246C333.655 346.237 332.366 347.526 332.366 349.117C332.366 350.707 333.655 351.997 335.246 351.997H340.492C342.083 351.997 343.372 350.707 343.372 349.117C343.372 347.526 342.083 346.237 340.492 346.237Z" fill="#E6E6E6"/>
<path id="Vector_90" d="M400.492 346.237H395.246C393.655 346.237 392.366 347.526 392.366 349.117C392.366 350.707 393.655 351.997 395.246 351.997H400.492C402.083 351.997 403.372 350.707 403.372 349.117C403.372 347.526 402.083 346.237 400.492 346.237Z" fill="#E6E6E6"/>
<path id="Vector_91" d="M417.492 346.237H412.246C410.655 346.237 409.366 347.526 409.366 349.117C409.366 350.707 410.655 351.997 412.246 351.997H417.492C419.083 351.997 420.372 350.707 420.372 349.117C420.372 347.526 419.083 346.237 417.492 346.237Z" fill="#E6E6E6"/>
<path id="Vector_92" d="M384.172 346.717H351.566C349.976 346.717 348.686 348.006 348.686 349.597C348.686 351.188 349.976 352.477 351.566 352.477H384.172C385.762 352.477 387.052 351.188 387.052 349.597C387.052 348.006 385.762 346.717 384.172 346.717Z" fill="#E6E6E6"/>
<path id="Vector_93" d="M356.492 333.237H351.246C349.655 333.237 348.366 334.526 348.366 336.117C348.366 337.707 349.655 338.997 351.246 338.997H356.492C358.083 338.997 359.372 337.707 359.372 336.117C359.372 334.526 358.083 333.237 356.492 333.237Z" fill="#E6E6E6"/>
<path id="Vector_94" d="M416.492 333.237H411.246C409.655 333.237 408.366 334.526 408.366 336.117C408.366 337.707 409.655 338.997 411.246 338.997H416.492C418.083 338.997 419.372 337.707 419.372 336.117C419.372 334.526 418.083 333.237 416.492 333.237Z" fill="#E6E6E6"/>
<path id="Vector_95" d="M433.492 333.237H428.246C426.655 333.237 425.366 334.526 425.366 336.117C425.366 337.707 426.655 338.997 428.246 338.997H433.492C435.083 338.997 436.372 337.707 436.372 336.117C436.372 334.526 435.083 333.237 433.492 333.237Z" fill="#E6E6E6"/>
<path id="Vector_96" d="M400.172 333.717H367.566C365.976 333.717 364.686 335.006 364.686 336.597C364.686 338.188 365.976 339.477 367.566 339.477H400.172C401.762 339.477 403.052 338.188 403.052 336.597C403.052 335.006 401.762 333.717 400.172 333.717Z" fill="#E6E6E6"/>
<path id="Vector_97" d="M372.492 320.237H367.246C365.655 320.237 364.366 321.526 364.366 323.117C364.366 324.707 365.655 325.997 367.246 325.997H372.492C374.083 325.997 375.372 324.707 375.372 323.117C375.372 321.526 374.083 320.237 372.492 320.237Z" fill="#E6E6E6"/>
<path id="Vector_98" d="M432.492 320.237H427.246C425.655 320.237 424.366 321.526 424.366 323.117C424.366 324.707 425.655 325.997 427.246 325.997H432.492C434.083 325.997 435.372 324.707 435.372 323.117C435.372 321.526 434.083 320.237 432.492 320.237Z" fill="#E6E6E6"/>
<path id="Vector_99" d="M449.492 320.237H444.246C442.655 320.237 441.366 321.526 441.366 323.117C441.366 324.707 442.655 325.997 444.246 325.997H449.492C451.083 325.997 452.372 324.707 452.372 323.117C452.372 321.526 451.083 320.237 449.492 320.237Z" fill="#E6E6E6"/>
<path id="Vector_100" d="M416.172 320.717H383.566C381.976 320.717 380.686 322.006 380.686 323.597C380.686 325.188 381.976 326.477 383.566 326.477H416.172C417.762 326.477 419.052 325.188 419.052 323.597C419.052 322.006 417.762 320.717 416.172 320.717Z" fill="#E6E6E6"/>
<path id="Vector_101" d="M15.8293 473.186C16.2699 474.469 17.1056 475.579 18.2165 476.357C19.3274 477.135 20.6563 477.541 22.0124 477.517L48.5042 476.835C49.8703 476.808 51.191 476.34 52.269 475.501C53.3471 474.662 54.1245 473.496 54.4851 472.178L58.234 432.091C59.564 432.693 61.012 432.991 62.4719 432.962C65.0334 432.897 67.4645 431.818 69.2303 429.961C70.9961 428.105 71.952 425.622 71.8877 423.061C71.8234 420.499 70.7442 418.068 68.8874 416.302C67.0307 414.537 64.5485 413.581 61.987 413.645C61.4035 413.643 60.8214 413.704 60.2508 413.826C59.6302 413.154 58.8759 412.62 58.0365 412.258C57.197 411.896 56.291 411.713 55.3768 411.723L14.6262 412.775C14.2882 412.787 13.9519 412.829 13.621 412.9C12.7274 413.066 11.8798 413.422 11.1353 413.944C10.3908 414.466 9.76667 415.141 9.30494 415.924C8.84322 416.707 8.5546 417.58 8.45851 418.484C8.36242 419.388 8.46109 420.302 8.74788 421.164L15.8293 473.186ZM59.0027 429.369L61.6704 419.816C61.9738 418.713 61.9809 417.549 61.6907 416.442C61.8202 416.441 61.9344 416.38 62.0638 416.38C63.8929 416.342 65.6624 417.031 66.9843 418.296C68.3061 419.56 69.0725 421.298 69.1153 423.127C69.1582 424.956 68.474 426.727 67.2127 428.053C65.9515 429.378 64.2163 430.149 62.3874 430.197C61.2049 430.234 60.0347 429.948 59.0027 429.369Z" fill="#2F2E41"/>
<path id="Vector_102" d="M13.6211 412.9C14.4893 417.864 24.2502 421.353 35.9869 420.747C46.7797 420.25 55.6044 416.46 57.2212 411.968C56.6228 411.791 56.0006 411.708 55.3768 411.723L14.6263 412.775C14.2882 412.787 13.9519 412.829 13.6211 412.9Z" fill="#3F3D56"/>
<path id="Vector_103" d="M29.0512 451.577C29.1478 451.552 29.2348 451.499 29.3012 451.425C29.3676 451.351 29.4103 451.259 29.4239 451.16C29.4374 451.061 29.4212 450.961 29.3773 450.871C29.3333 450.782 29.2637 450.708 29.1773 450.658L23.8742 447.618L28.9998 443.811C29.0525 443.771 29.097 443.722 29.1306 443.666C29.1643 443.61 29.1866 443.547 29.1961 443.482C29.2057 443.417 29.2024 443.351 29.1864 443.288C29.1704 443.224 29.142 443.164 29.1029 443.112C29.0638 443.059 29.0146 443.014 28.9583 442.981C28.902 442.947 28.8396 442.925 28.7747 442.915C28.7098 442.906 28.6436 442.909 28.58 442.925C28.5164 442.941 28.4565 442.969 28.4038 443.009L22.6652 447.271C22.5985 447.321 22.5452 447.386 22.5101 447.461C22.475 447.536 22.4591 447.619 22.464 447.702C22.4689 447.785 22.4943 447.865 22.5381 447.936C22.5818 448.006 22.6424 448.065 22.7144 448.106L28.6797 451.526C28.7922 451.59 28.9255 451.608 29.0512 451.577Z" fill="#8B63FF"/>
<path id="Vector_104" d="M38.138 451.158C38.1917 451.144 38.2427 451.122 38.2889 451.091L44.0421 447.325C44.1116 447.28 44.1688 447.218 44.2083 447.145C44.2479 447.072 44.2686 446.99 44.2687 446.907C44.2687 446.824 44.248 446.743 44.2085 446.67C44.169 446.597 44.1119 446.535 44.0424 446.489L38.0626 442.573C38.0077 442.536 37.9462 442.511 37.8816 442.499C37.817 442.486 37.7506 442.487 37.6861 442.5C37.6216 442.513 37.5604 442.539 37.506 442.576C37.4516 442.613 37.405 442.66 37.3689 442.715C37.3328 442.77 37.308 442.832 37.2958 442.897C37.2836 442.961 37.2843 443.028 37.2978 443.092C37.3114 443.157 37.3375 443.218 37.3747 443.272C37.4119 443.326 37.4595 443.373 37.5147 443.408L42.8556 446.907L37.7416 450.255C37.6426 450.319 37.5697 450.417 37.536 450.53C37.5023 450.644 37.5099 450.765 37.5574 450.874C37.605 450.982 37.6894 451.07 37.7957 451.122C37.902 451.174 38.0233 451.187 38.138 451.158H38.138Z" fill="#8B63FF"/>
<path id="Vector_105" d="M599.755 79.404H273.003V85.363H599.755V79.404Z" fill="#E6E6E6"/>
</g>
<g id="man">
<path id="Vector_106" d="M322.955 535.489C322.735 535.599 322.515 535.709 322.295 535.809C320.905 536.499 319.505 537.179 318.095 537.849C313.875 539.859 309.602 541.769 305.275 543.579C293.891 548.341 282.21 552.359 270.305 555.609C268.305 543.139 266.365 513.729 264.505 492.099C264.155 488.029 263.805 484.239 263.455 480.889C263.123 476.491 262.492 472.121 261.565 467.809C261.475 467.471 261.344 467.146 261.175 466.839C261.365 468.569 261.565 473.729 261.755 480.889C261.855 484.239 261.945 488.029 262.045 492.099C262.515 512.919 263.005 541.249 263.495 557.379C262.105 557.719 260.705 558.059 259.305 558.379C258.425 558.589 257.535 558.789 256.645 558.979C255.565 559.219 254.485 559.459 253.405 559.679C252.275 559.919 251.145 560.149 250.015 560.369C231.549 563.997 212.774 565.819 193.955 565.809C192.705 565.809 191.465 565.799 190.215 565.789C189.835 565.789 189.455 565.779 189.065 565.769C187.965 565.749 186.825 565.729 185.665 565.699C163.426 565.084 141.333 561.9 119.825 556.209L120.695 492.099L120.845 480.889L120.905 476.639C120.41 478.006 120.114 479.438 120.025 480.889C119.675 483.619 119.315 487.489 118.955 492.099C117.585 509.859 116.175 538.509 114.715 554.809C97.4254 549.889 84.7854 545.399 68.9854 537.499C68.3753 537.199 67.7554 536.889 67.1454 536.579C67.2554 535.809 67.3754 535.039 67.4854 534.249C69.2754 521.809 67.1654 505.619 69.1454 492.099C70.6554 481.669 72.2154 471.649 73.7854 463.149C75.6854 452.919 77.6153 444.879 79.5254 440.969C81.7254 436.459 83.9254 432.019 86.0554 427.769C86.9754 425.939 87.8788 424.143 88.7654 422.379C89.2454 421.429 89.7254 420.489 90.1954 419.569C92.3354 415.379 94.3554 411.509 96.2054 408.079C97.5054 405.669 98.7054 403.489 99.8054 401.579C101.095 399.329 102.235 397.469 103.175 396.059C110.118 385.535 120.449 377.699 132.455 373.849L132.755 373.769L133.045 373.889L133.375 374.039L152.435 367.069L160.945 346.579L204.655 343.889L211.715 349.259L215.325 352.009L219.175 354.939L226.255 360.329L228.265 360.949L231.255 361.869L251.705 368.149L251.915 368.059L252.215 368.139C263.141 371.636 272.705 378.453 279.575 387.639C280.255 388.519 280.885 389.429 281.495 390.349C283.155 392.809 285.395 396.699 288.035 401.579C289.125 403.589 290.275 405.769 291.485 408.079C292.215 409.469 298.515 429.129 304.645 449.209C310.375 468.009 315.955 487.179 316.685 492.099C316.815 493.009 316.955 493.929 317.085 494.839C317.915 500.529 318.735 506.259 319.525 511.849C320.695 520.139 321.835 528.139 322.925 535.289C322.935 535.359 322.945 535.419 322.955 535.489Z" fill="#3F3D56"/>
<path id="Vector_107" d="M182.551 333.024C213.443 333.024 238.486 307.981 238.486 277.089C238.486 246.197 213.443 221.154 182.551 221.154C151.659 221.154 126.616 246.197 126.616 277.089C126.616 307.981 151.659 333.024 182.551 333.024Z" fill="#A0616A"/>
<path id="Vector_108" opacity="0.2" d="M276.633 463.103L268.136 430.311L260.633 458.607L276.633 463.103Z" fill="black"/>
<path id="Vector_109" d="M127.288 238.543C131.836 232.413 138.372 228.055 143.372 222.288C146.116 219.124 148.394 215.539 151.478 212.706C157.209 207.443 165.222 205.286 172.998 205.018C181.52 204.799 189.974 206.589 197.676 210.244C205.377 213.899 212.11 219.316 217.33 226.056C221.394 223.673 225.459 221.29 229.523 218.907C231.129 223.134 232.735 227.36 234.341 231.587C235.658 230.441 237.339 229.799 239.085 229.775C240.831 229.75 242.529 230.345 243.879 231.453C245.228 232.561 246.142 234.111 246.458 235.828C246.774 237.545 246.471 239.319 245.604 240.835C246.571 237.846 251.003 237.211 253.447 239.186C255.89 241.161 256.544 244.674 256.146 247.79C255.645 251.209 254.134 254.4 251.806 256.953C249.478 259.506 246.439 261.304 243.081 262.116C237.777 263.298 231.604 262.056 227.358 265.449C223.955 268.168 222.927 273.12 219.454 275.75C215.174 278.99 209.125 277.492 203.804 278.208C194.496 279.461 187.126 288.981 188.245 298.306C187.403 295.364 186.518 292.336 184.606 289.946C182.695 287.555 179.475 285.939 176.544 286.818C171.698 288.27 170.905 294.875 172.08 299.796C175.194 312.846 186.999 333.94 186.999 333.94C171.671 339.986 153.41 334.269 141.584 322.796C129.757 311.323 123.598 295.077 120.915 278.82C118.64 265.034 118.962 249.764 127.288 238.543Z" fill="#2F2E41"/>
<path id="Vector_110" opacity="0.2" d="M50.5313 458.909C50.376 456.317 50.2025 453.638 50 450.849C60.14 425.529 332.23 470.359 336.82 499.719C336.807 502.411 336.692 505.023 336.499 507.574C325.383 478.596 66.894 435.988 50.5313 458.909Z" fill="black"/>
<path id="Vector_111" d="M339.025 514.846L326.186 493.43L368.877 461.042L386.627 442.301C388.933 439.867 391.838 438.08 395.051 437.119C398.264 436.159 401.673 436.058 404.937 436.828C408.201 437.598 411.205 439.21 413.651 441.505C416.096 443.8 417.897 446.696 418.872 449.905C420.317 454.66 419.859 459.79 417.593 464.213C415.328 468.636 411.433 472.006 406.73 473.612L379.147 483.028L339.025 514.846Z" fill="#A0616A"/>
<path id="Vector_112" d="M348.305 514.139L328.315 530.799L322.925 535.289L322.295 535.809C320.905 536.499 319.505 537.179 318.095 537.849C313.875 539.859 309.602 541.769 305.275 543.579C293.891 548.341 282.21 552.359 270.305 555.609C268.045 556.229 265.776 556.819 263.495 557.379C262.105 557.719 260.705 558.059 259.305 558.379C258.425 558.589 257.535 558.789 256.645 558.979C255.565 559.219 254.485 559.459 253.405 559.679C252.275 559.919 251.145 560.149 250.015 560.369C246.975 557.476 244.554 553.995 242.9 550.137C241.247 546.28 240.394 542.126 240.395 537.929C240.395 537.659 240.395 537.379 240.405 537.099L243.615 454.769L245.035 418.279C245.254 410.027 248.692 402.188 254.613 396.437C260.535 390.685 268.471 387.478 276.725 387.499C277.685 387.499 278.636 387.549 279.576 387.639C280.256 388.519 280.885 389.429 281.495 390.349C283.155 392.809 285.395 396.699 288.035 401.579C289.125 403.589 290.276 405.769 291.486 408.079C292.216 409.469 298.516 429.129 304.646 449.209L301.945 470.179L297.065 507.979L317.086 494.839L331.185 485.579L332.855 488.369L337.206 495.629L345.605 509.629L348.305 514.139Z" fill="#3F3D56"/>
<path id="Vector_113" d="M337.345 490.609C337.335 492.309 337.295 493.979 337.205 495.629C336.997 500.181 336.469 504.712 335.625 509.189C334.245 516.708 331.783 523.987 328.315 530.799C327.855 531.709 327.365 532.609 326.865 533.489C325.575 534.169 324.265 534.829 322.955 535.489C322.735 535.599 322.515 535.709 322.295 535.809C316.725 538.579 311.052 541.169 305.275 543.579C293.891 548.341 282.21 552.359 270.305 555.609C268.045 556.229 265.775 556.819 263.495 557.379C259.045 558.479 254.552 559.476 250.015 560.369C231.549 563.997 212.774 565.819 193.955 565.809C192.705 565.809 191.465 565.799 190.215 565.789C189.835 565.789 189.455 565.779 189.065 565.769C187.965 565.749 186.825 565.729 185.665 565.699C163.426 565.084 141.333 561.9 119.825 556.209C118.115 555.759 116.412 555.293 114.715 554.809C98.3657 550.159 82.4628 544.062 67.1954 536.589C50.4154 502.059 53.5654 483.619 50.5254 441.739C56.7654 426.149 162.335 437.159 243.615 454.769C265.675 459.549 285.935 464.819 301.945 470.179C318.485 475.709 330.475 481.329 335.175 486.609C336.274 487.702 337.028 489.093 337.345 490.609Z" fill="#2F2E41"/>
</g>
<g id="woman">
<path id="Vector_114" d="M793.123 549.219C792.513 549.529 791.893 549.839 791.283 550.139C775.483 558.039 762.843 562.529 745.553 567.449C744.093 551.149 742.683 522.499 741.313 504.739C740.953 500.129 740.593 496.259 740.243 493.529C740.155 492.078 739.858 490.646 739.363 489.279L739.423 493.529L739.573 504.739L740.443 568.849C718.935 574.54 696.842 577.724 674.603 578.339C673.443 578.369 672.303 578.389 671.203 578.409C670.813 578.419 670.433 578.429 670.053 578.429C668.803 578.439 667.563 578.449 666.313 578.449C642.877 578.466 619.526 575.636 596.773 570.019C597.263 553.889 597.753 525.559 598.223 504.739C598.323 500.669 598.413 496.879 598.513 493.529C598.703 486.369 598.903 481.209 599.093 479.479C598.924 479.786 598.793 480.111 598.703 480.449C597.777 484.761 597.145 489.131 596.813 493.529C596.463 496.879 596.113 500.669 595.763 504.739C593.903 526.369 591.963 555.779 589.963 568.249C578.058 564.999 566.377 560.981 554.993 556.219C548.993 553.719 543.099 551.022 537.313 548.129C538.413 540.929 539.563 532.859 540.743 524.489C541.663 517.999 542.613 511.329 543.583 504.739C545.083 494.559 596.043 384.629 608.053 380.779L608.353 380.699L608.563 380.789L629.013 374.509L632.003 373.589L634.013 372.969L641.093 367.579L644.943 364.649L648.553 361.899L655.613 356.529L699.323 359.219L707.833 379.709L726.893 386.679L727.223 386.529L727.513 386.409L727.813 386.489C739.819 390.339 750.15 398.175 757.093 408.699C758.033 410.109 759.173 411.969 760.463 414.219C761.563 416.129 762.763 418.309 764.063 420.719C765.913 424.149 767.933 428.019 770.073 432.209C770.543 433.129 771.023 434.069 771.503 435.019C772.393 436.779 773.296 438.576 774.213 440.409C776.343 444.659 778.543 449.099 780.743 453.609C782.653 457.519 784.583 465.559 786.483 475.789C788.053 484.289 789.613 494.309 791.123 504.739C793.103 518.259 790.993 534.449 792.783 546.889C792.893 547.679 793.013 548.449 793.123 549.219Z" fill="#3F3D56"/>
<path id="Vector_115" opacity="0.2" d="M583.633 475.745L592.13 442.953L599.633 471.249L583.633 475.745Z" fill="black"/>
<path id="Vector_116" d="M664.928 349.174C693.004 349.174 715.764 326.414 715.764 298.337C715.764 270.261 693.004 247.501 664.928 247.501C636.852 247.501 614.091 270.261 614.091 298.337C614.091 326.414 636.852 349.174 664.928 349.174Z" fill="#FFB6B6"/>
<path id="Vector_117" d="M516.156 456.354L538.49 445.188L519.878 394.937L514.974 369.595C514.336 366.302 512.846 363.235 510.652 360.699C508.458 358.163 505.636 356.247 502.47 355.143C499.303 354.039 495.903 353.785 492.607 354.407C489.312 355.029 486.237 356.505 483.691 358.688C479.918 361.922 477.549 366.495 477.084 371.443C476.619 376.39 478.094 381.325 481.199 385.206L499.406 407.965L516.156 456.354Z" fill="#FFB6B6"/>
<path id="Vector_118" d="M809.743 454.379C806.703 496.259 809.853 514.699 793.073 549.229C777.805 556.702 761.903 562.799 745.553 567.449C743.853 567.929 742.149 568.396 740.443 568.849C718.935 574.54 696.842 577.724 674.603 578.339C673.443 578.369 672.303 578.389 671.203 578.409C670.813 578.419 670.433 578.429 670.053 578.429C668.803 578.439 667.563 578.449 666.313 578.449C642.877 578.467 619.526 575.636 596.773 570.019C594.493 569.459 592.223 568.869 589.963 568.249C578.058 564.999 566.377 560.981 554.993 556.219C548.993 553.719 543.099 551.023 537.313 548.129C536.003 547.469 534.693 546.809 533.403 546.129C526.773 534.469 523.003 520.289 522.923 503.249C527.513 473.889 799.603 429.059 809.743 454.379Z" fill="#2F2E41"/>
<path id="Vector_119" opacity="0.2" d="M809.735 461.551C809.89 458.959 810.064 456.28 810.266 453.491C800.126 428.171 528.036 473.001 523.446 502.361C523.459 505.053 523.574 507.666 523.768 510.216C534.883 481.238 793.372 438.63 809.735 461.551Z" fill="black"/>
<path id="Vector_120" d="M735.559 243.37C743.354 260.823 727.626 268.33 713.218 268.118C700.199 267.926 689.134 258.78 688.469 245.777C688.15 239.532 690.325 233.417 694.515 228.776C698.704 224.134 704.566 221.348 710.811 221.028C723.814 220.364 730.25 231.481 735.559 243.37Z" fill="#2F2E41"/>
<path id="Vector_121" d="M728.636 326.361C739.277 301.963 733.249 279.512 720.276 267.601V267.591C715.176 256.161 708.396 247.341 700.636 245.271C696.886 242.861 693.246 240.031 689.206 238.591C687.324 237.887 685.319 237.571 683.312 237.662C681.304 237.753 679.336 238.249 677.526 239.121L675.466 238.571C673.716 234.101 671.666 234.011 669.386 236.951C660.606 232.861 652.696 231.031 645.656 231.031C622.696 231.031 609.116 250.471 605.516 273.971L624.706 279.081L631.376 268.451L628.296 280.041L638.886 282.851C655.006 303.841 635.716 352.261 611.266 379.201C617.086 377.591 622.882 376.231 628.656 375.121L649.636 344.361L636.636 372.361C643.386 371.371 651.996 372.321 661.406 374.231C664.576 370.091 666.246 364.571 664.606 359.651C667.287 364.84 669.136 370.418 670.086 376.181C689.946 381.031 717.036 383.521 731.636 385.361C743.432 381.511 743.464 338.022 728.636 326.361Z" fill="#2F2E41"/>
<path id="Vector_122" d="M538.49 435.882L508.712 450.771L531.31 521.58C532.933 526.665 535.842 531.244 539.755 534.874C543.669 538.503 548.453 541.06 553.646 542.296C560.048 543.821 566.77 543.267 572.836 540.714C578.902 538.161 583.997 533.743 587.383 528.099L647.308 425.386C651.555 418.308 652.866 409.85 650.961 401.819C649.056 393.788 644.086 386.82 637.112 382.404C633.362 380.028 629.154 378.469 624.761 377.828C620.368 377.187 615.89 377.478 611.617 378.682C607.344 379.886 603.373 381.977 599.961 384.817C596.55 387.658 593.775 391.185 591.816 395.169L555.24 473.105L538.49 435.882Z" fill="#3F3D56"/>
</g>
</g>
<defs>
<clipPath id="clip0_1_2">
<rect width="880.16" height="576.272" fill="white"/>
</clipPath>
</defs>
</svg>
